<svg width="1465" height="1096" viewBox="0 0 1465 1096" fill="none" xmlns="http://www.w3.org/2000/svg">
<rect x="-54" y="-30.8219" width="1542.91" height="1256.82" fill="#C2DAFF"/>
<ellipse cx="15.8068" cy="57.2913" rx="5.36976" ry="5.80965" fill="#D0E3FF"/>
<ellipse cx="145.576" cy="57.2913" rx="5.36976" ry="5.80965" fill="#D0E3FF"/>
<ellipse cx="41.7604" cy="57.2913" rx="5.36976" ry="5.80965" fill="#D0E3FF"/>
<ellipse cx="171.53" cy="57.2913" rx="5.36976" ry="5.80965" fill="#D0E3FF"/>
<ellipse cx="67.7145" cy="57.2913" rx="5.36976" ry="5.80965" fill="#D0E3FF"/>
<ellipse cx="197.484" cy="57.2913" rx="5.36976" ry="5.80965" fill="#D0E3FF"/>
<ellipse cx="93.6681" cy="57.2913" rx="5.36976" ry="5.80965" fill="#D0E3FF"/>
<ellipse cx="223.438" cy="57.2913" rx="5.36976" ry="5.80965" fill="#D0E3FF"/>
<ellipse cx="119.622" cy="57.2913" rx="5.36976" ry="5.80965" fill="#D0E3FF"/>
<ellipse cx="249.391" cy="57.2913" rx="5.36976" ry="5.80965" fill="#D0E3FF"/>
<ellipse cx="15.8068" cy="112.483" rx="5.36976" ry="5.80965" fill="#D0E3FF"/>
<ellipse cx="145.576" cy="112.483" rx="5.36976" ry="5.80965" fill="#D0E3FF"/>
<ellipse cx="41.7604" cy="112.483" rx="5.36976" ry="5.80965" fill="#D0E3FF"/>
<ellipse cx="171.53" cy="112.483" rx="5.36976" ry="5.80965" fill="#D0E3FF"/>
<ellipse cx="67.7145" cy="112.483" rx="5.36976" ry="5.80965" fill="#D0E3FF"/>
<ellipse cx="197.484" cy="112.483" rx="5.36976" ry="5.80965" fill="#D0E3FF"/>
<ellipse cx="93.6681" cy="112.483" rx="5.36976" ry="5.80965" fill="#D0E3FF"/>
<ellipse cx="223.438" cy="112.483" rx="5.36976" ry="5.80965" fill="#D0E3FF"/>
<ellipse cx="119.622" cy="112.483" rx="5.36976" ry="5.80965" fill="#D0E3FF"/>
<ellipse cx="249.391" cy="112.483" rx="5.36976" ry="5.80965" fill="#D0E3FF"/>
<ellipse cx="15.8068" cy="167.675" rx="5.36976" ry="5.80965" fill="#D0E3FF"/>
<ellipse cx="145.576" cy="167.675" rx="5.36976" ry="5.80965" fill="#D0E3FF"/>
<ellipse cx="41.7604" cy="167.675" rx="5.36976" ry="5.80965" fill="#D0E3FF"/>
<ellipse cx="171.53" cy="167.675" rx="5.36976" ry="5.80965" fill="#D0E3FF"/>
<ellipse cx="67.7145" cy="167.675" rx="5.36976" ry="5.80965" fill="#D0E3FF"/>
<ellipse cx="197.484" cy="167.675" rx="5.36976" ry="5.80965" fill="#D0E3FF"/>
<ellipse cx="93.6681" cy="167.675" rx="5.36976" ry="5.80965" fill="#D0E3FF"/>
<ellipse cx="223.438" cy="167.675" rx="5.36976" ry="5.80965" fill="#D0E3FF"/>
<ellipse cx="119.622" cy="167.675" rx="5.36976" ry="5.80965" fill="#D0E3FF"/>
<ellipse cx="249.391" cy="167.675" rx="5.36976" ry="5.80965" fill="#D0E3FF"/>
<ellipse cx="15.8068" cy="222.866" rx="5.36976" ry="5.80965" fill="#D0E3FF"/>
<ellipse cx="145.576" cy="222.867" rx="5.36976" ry="5.80965" fill="#D0E3FF"/>
<ellipse cx="41.7604" cy="222.867" rx="5.36976" ry="5.80965" fill="#D0E3FF"/>
<ellipse cx="171.53" cy="222.867" rx="5.36976" ry="5.80965" fill="#D0E3FF"/>
<ellipse cx="67.7145" cy="222.867" rx="5.36976" ry="5.80965" fill="#D0E3FF"/>
<ellipse cx="197.484" cy="222.867" rx="5.36976" ry="5.80965" fill="#D0E3FF"/>
<ellipse cx="93.6681" cy="222.867" rx="5.36976" ry="5.80965" fill="#D0E3FF"/>
<ellipse cx="223.438" cy="222.867" rx="5.36976" ry="5.80965" fill="#D0E3FF"/>
<ellipse cx="119.622" cy="222.867" rx="5.36976" ry="5.80965" fill="#D0E3FF"/>
<ellipse cx="249.391" cy="222.867" rx="5.36976" ry="5.80965" fill="#D0E3FF"/>
<ellipse cx="15.8068" cy="278.058" rx="5.36976" ry="5.80965" fill="#D0E3FF"/>
<ellipse cx="145.576" cy="278.058" rx="5.36976" ry="5.80965" fill="#D0E3FF"/>
<ellipse cx="41.7604" cy="278.058" rx="5.36976" ry="5.80965" fill="#D0E3FF"/>
<ellipse cx="171.53" cy="278.058" rx="5.36976" ry="5.80965" fill="#D0E3FF"/>
<ellipse cx="67.7145" cy="278.058" rx="5.36976" ry="5.80965" fill="#D0E3FF"/>
<ellipse cx="197.484" cy="278.058" rx="5.36976" ry="5.80965" fill="#D0E3FF"/>
<ellipse cx="93.6681" cy="278.058" rx="5.36976" ry="5.80965" fill="#D0E3FF"/>
<ellipse cx="223.438" cy="278.058" rx="5.36976" ry="5.80965" fill="#D0E3FF"/>
<ellipse cx="119.622" cy="278.058" rx="5.36976" ry="5.80965" fill="#D0E3FF"/>
<ellipse cx="249.391" cy="278.058" rx="5.36976" ry="5.80965" fill="#D0E3FF"/>
<ellipse cx="1155.09" cy="953.916" rx="5.36976" ry="5.80965" fill="#D0E3FF"/>
<ellipse cx="1284.86" cy="953.915" rx="5.36976" ry="5.80965" fill="#D0E3FF"/>
<ellipse cx="1181.05" cy="953.915" rx="5.36976" ry="5.80965" fill="#D0E3FF"/>
<ellipse cx="1310.81" cy="953.915" rx="5.36976" ry="5.80965" fill="#D0E3FF"/>
<ellipse cx="1207" cy="953.915" rx="5.36976" ry="5.80965" fill="#D0E3FF"/>
<ellipse cx="1336.77" cy="953.915" rx="5.36976" ry="5.80965" fill="#D0E3FF"/>
<ellipse cx="1232.95" cy="953.915" rx="5.36976" ry="5.80965" fill="#D0E3FF"/>
<ellipse cx="1362.72" cy="953.915" rx="5.36976" ry="5.80965" fill="#D0E3FF"/>
<ellipse cx="1258.91" cy="953.915" rx="5.36976" ry="5.80965" fill="#D0E3FF"/>
<ellipse cx="1388.68" cy="953.915" rx="5.36976" ry="5.80965" fill="#D0E3FF"/>
<ellipse cx="1155.09" cy="1009.11" rx="5.36976" ry="5.80965" fill="#D0E3FF"/>
<ellipse cx="1284.86" cy="1009.11" rx="5.36976" ry="5.80965" fill="#D0E3FF"/>
<ellipse cx="1181.05" cy="1009.11" rx="5.36976" ry="5.80965" fill="#D0E3FF"/>
<ellipse cx="1310.81" cy="1009.11" rx="5.36976" ry="5.80965" fill="#D0E3FF"/>
<ellipse cx="1207" cy="1009.11" rx="5.36976" ry="5.80965" fill="#D0E3FF"/>
<ellipse cx="1336.77" cy="1009.11" rx="5.36976" ry="5.80965" fill="#D0E3FF"/>
<ellipse cx="1232.95" cy="1009.11" rx="5.36976" ry="5.80965" fill="#D0E3FF"/>
<ellipse cx="1362.72" cy="1009.11" rx="5.36976" ry="5.80965" fill="#D0E3FF"/>
<ellipse cx="1258.91" cy="1009.11" rx="5.36976" ry="5.80965" fill="#D0E3FF"/>
<ellipse cx="1388.68" cy="1009.11" rx="5.36976" ry="5.80965" fill="#D0E3FF"/>
<ellipse cx="1155.09" cy="1064.3" rx="5.36976" ry="5.80965" fill="#D0E3FF"/>
<ellipse cx="1284.86" cy="1064.3" rx="5.36976" ry="5.80965" fill="#D0E3FF"/>
<ellipse cx="1181.05" cy="1064.3" rx="5.36976" ry="5.80965" fill="#D0E3FF"/>
<ellipse cx="1310.81" cy="1064.3" rx="5.36976" ry="5.80965" fill="#D0E3FF"/>
<ellipse cx="1207" cy="1064.3" rx="5.36976" ry="5.80965" fill="#D0E3FF"/>
<ellipse cx="1336.77" cy="1064.3" rx="5.36976" ry="5.80965" fill="#D0E3FF"/>
<ellipse cx="1232.95" cy="1064.3" rx="5.36976" ry="5.80965" fill="#D0E3FF"/>
<ellipse cx="1362.72" cy="1064.3" rx="5.36976" ry="5.80965" fill="#D0E3FF"/>
<ellipse cx="1258.91" cy="1064.3" rx="5.36976" ry="5.80965" fill="#D0E3FF"/>
<ellipse cx="1388.68" cy="1064.3" rx="5.36976" ry="5.80965" fill="#D0E3FF"/>
<ellipse cx="825.009" cy="930.277" rx="210.434" ry="227.673" fill="#D0E3FF"/>
<ellipse cx="54.7112" cy="930.277" rx="33.3899" ry="36.1252" fill="#D0E3FF"/>
<ellipse rx="33.3899" ry="36.1252" transform="matrix(-1 0 0 1 1301.01 628.674)" fill="#D0E3FF"/>
<ellipse rx="33.3899" ry="36.1252" transform="matrix(-1 0 0 1 740.369 219.534)" fill="#D0E3FF"/>
<ellipse cx="21.3212" cy="781.576" rx="20.9658" ry="22.6833" fill="#D0E3FF"/>
<ellipse rx="20.9658" ry="22.6833" transform="matrix(-1 0 0 1 1334.4 479.972)" fill="#D0E3FF"/>
<ellipse rx="20.9658" ry="22.6833" transform="matrix(-1 0 0 1 773.759 70.8328)" fill="#D0E3FF"/>
<ellipse cx="123.821" cy="813.5" rx="62.8973" ry="68.0499" fill="#D0E3FF"/>
<ellipse rx="62.8973" ry="68.0499" transform="matrix(-1 0 0 1 1231.9 511.897)" fill="#D0E3FF"/>
<ellipse rx="62.8973" ry="68.0499" transform="matrix(-1 0 0 1 671.26 102.758)" fill="#D0E3FF"/>
<ellipse cx="1368.57" cy="71.673" rx="210.434" ry="227.673" fill="#D0E3FF"/>
</svg>
