<svg width="85" height="85" viewBox="0 0 85 85" fill="none" xmlns="http://www.w3.org/2000/svg">
<path d="M83.629 4.11291L81.9976 12.2979C81.4219 15.1764 80.6541 18.0006 79.6941 20.7426L64.2573 5.30581C66.9993 4.34586 69.8235 3.57804 72.702 3.00234L80.887 1.37097C81.6408 1.37097 82.3263 1.67288 82.8203 2.17963C83.327 2.67366 83.629 3.35914 83.629 4.11291Z" fill="#FCD770"/>
<path d="M64.2575 5.30579C55.0035 8.48619 46.5722 13.7505 39.6076 20.7151C35.8234 24.4993 32.5198 28.7354 29.7912 33.3142C29.2015 34.3016 28.6398 35.3024 28.105 36.3306L48.7726 56.8951C49.3891 56.5798 49.355 56.2371 50.7259 55.8944V55.8803C56.2098 53.0293 60.2745 49.5054 64.3874 45.3925C68.8979 40.882 72.6587 35.7409 75.6477 30.1613C77.2516 27.1449 78.6099 23.9919 79.7204 20.7426L64.2575 5.30579Z" fill="#E6E9ED"/>
<path d="M68.5484 60.3225V60.7884C68.5484 63.284 68.055 65.7107 67.1225 67.9586C66.19 70.2071 64.8191 72.2777 63.0645 74.0322C60.9672 76.1295 58.554 77.8847 55.9493 79.2557L49.6152 72.9216C50.7666 70.7146 52.2066 68.6581 53.8928 66.8072C54.1941 66.4644 54.5093 66.1357 54.8387 65.8064C58.3485 62.2966 63.1053 60.3225 68.0825 60.3225H68.5484Z" fill="#E6E9ED"/>
<path d="M34.2743 42.5L34.6036 42.1706C37.9072 38.8671 42.3769 37.0161 47.0381 37.0161H47.984V37.962C47.984 40.2929 47.518 42.5823 46.6404 44.6937C45.7628 46.805 44.4742 48.7517 42.8294 50.3964C42.7197 50.5062 42.6099 50.616 42.5001 50.7258C40.7998 52.3438 38.8531 53.6324 36.7284 54.5508L30.4492 48.2717C31.3677 46.147 32.6563 44.2003 34.2743 42.5Z" fill="#E6E9ED"/>
<path d="M60.3224 15.0807C65.6282 15.0807 69.9191 19.3717 69.9191 24.6775C69.9191 29.9833 65.6282 34.2742 60.3224 34.2742C55.0166 34.2742 50.7256 29.9833 50.7256 24.6775C50.7256 19.3717 55.0166 15.0807 60.3224 15.0807Z" fill="#69D6F4"/>
<path d="M64.4353 24.6774C64.4353 26.9487 62.5937 28.7903 60.3224 28.7903C58.051 28.7903 56.2095 26.9487 56.2095 24.6774C56.2095 22.406 58.051 20.5645 60.3224 20.5645C62.5937 20.5645 64.4353 22.406 64.4353 24.6774Z" fill="#4FC1E9"/>
<path d="M55.9492 79.2558C55.7985 79.3381 55.6473 79.4064 55.4966 79.4887C52.7273 80.8738 49.7249 81.8197 46.6128 82.2581C47.0787 78.9813 48.1069 75.8143 49.6151 72.9218L55.9492 79.2558Z" fill="#FF826E"/>
<path d="M53.8656 66.7798L53.893 66.8073C52.2067 68.6582 50.7668 70.7147 49.6154 72.9217L38.4556 61.7619L45.8727 58.2936C46.8186 57.8551 47.7511 57.3886 48.6695 56.8952C49.2867 56.5799 49.9033 56.2372 50.5205 55.8944L53.8656 66.7798Z" fill="#AAB2BD"/>
<path d="M42.5 50.7258L48.6694 56.8952C47.7509 57.3885 46.8184 57.8551 45.8725 58.2936L38.4554 61.7618L35.6452 63.0645L28.8037 56.2231L28.8178 56.2097C31.5597 56.2097 34.2608 55.634 36.7283 54.5509C38.853 53.6324 40.7997 52.3438 42.5 50.7258Z" fill="#CCD1D9"/>
<path d="M36.7285 54.5509C34.261 55.634 31.5599 56.2097 28.818 56.2097L28.8039 56.2231L28.7905 56.2097V56.1963C28.7905 53.5635 29.3113 50.9862 30.2987 48.6011C30.3396 48.4913 30.3945 48.3815 30.4493 48.2717L36.7285 54.5509Z" fill="#FF826E"/>
<path d="M28.1049 36.3307L34.2743 42.5C32.6563 44.2004 31.3676 46.147 30.4492 48.2718C30.3943 48.3815 30.3394 48.4913 30.2986 48.6011C29.3112 50.9863 28.7904 53.5635 28.7904 56.1963V56.2097L21.9355 49.3549L23.6767 45.6122L26.7065 39.1275C27.145 38.1816 27.6115 37.2491 28.1049 36.3307Z" fill="#CCD1D9"/>
<path d="M34.2744 61.6936L27.2823 66.3547C26.9396 64.1336 25.8839 62.1595 24.3623 60.6379C22.8407 59.1163 20.8666 58.0606 18.6455 57.7179L23.3067 50.7258L34.2744 61.6936Z" fill="#AAB2BD"/>
<path d="M18.22 29.7637L29.7909 33.3142C29.2012 34.3016 28.6395 35.3024 28.1047 36.3306C27.6113 37.2491 27.1447 38.1816 26.7062 39.1275L23.6765 45.6121L12.0781 34.0138C14.2852 32.8624 16.3416 31.4225 18.1926 29.7362L18.22 29.7637Z" fill="#AAB2BD"/>
<path d="M27.2822 66.3547C27.3786 66.8896 27.4195 67.4519 27.4195 68.0136C27.4195 72.4418 24.6226 76.3907 20.4549 77.8574L4.11303 83.6291C3.35926 83.6291 2.67378 83.3272 2.17975 82.8204C1.673 82.3264 1.37109 81.6409 1.37109 80.8871L7.14281 64.5453C7.8698 62.4614 9.22671 60.7203 10.9545 59.4999C12.6816 58.2796 14.7789 57.5807 16.9866 57.5807C17.5482 57.5807 18.1106 57.6215 18.6454 57.7179C20.8665 58.0607 22.8407 59.1163 24.3622 60.6379C25.8838 62.1595 26.9395 64.1336 27.2822 66.3547Z" fill="#FF826E"/>
<path d="M26.0483 65.2715C26.0483 67.9586 24.348 70.3444 21.8256 71.2354L9.36377 75.6361L13.7645 63.1742C14.6555 60.6519 17.0413 58.9515 19.7284 58.9515C23.2107 58.9515 26.0483 61.7892 26.0483 65.2715Z" fill="#FCD770"/>
<path d="M24.6773 15.0807V15.5466C24.6773 20.5237 22.7032 25.2806 19.1934 28.7904C18.8641 29.1197 18.5354 29.435 18.1926 29.7363C16.3417 31.4225 14.2852 32.8624 12.0782 34.0138L5.74414 27.6798C7.11511 25.0751 8.87032 22.6618 10.9676 20.5646C12.7222 18.81 14.7927 17.439 17.0412 16.5065C19.2891 15.574 21.7158 15.0807 24.2114 15.0807H24.6773Z" fill="#E6E9ED"/>
<path d="M12.0781 34.0138C9.18552 35.522 6.0185 36.5503 2.7417 37.0162C3.18017 33.9041 4.12606 30.9017 5.51108 28.1323C5.59342 27.9817 5.6617 27.8304 5.74404 27.6798L12.0781 34.0138Z" fill="#FF826E"/>
<path d="M47.8047 49.5442L49.1917 51.91C50.6725 51.0424 52.1338 50.0979 53.5376 49.1038L51.9531 46.8666C50.6122 47.8138 49.2165 48.7162 47.8047 49.5442Z" fill="black"/>
<path d="M59.4332 40.552C57.6579 42.3273 55.7507 44.0015 53.7686 45.5271L55.4394 47.7C57.518 46.1028 59.5142 44.3509 61.3731 42.4906C62.4 41.4637 63.4035 40.3846 64.3574 39.2848L62.2849 37.4894C61.3731 38.5404 60.4132 39.5699 59.4332 40.552Z" fill="black"/>
<path d="M80.8871 0L72.4283 1.66417C59.5822 4.2334 47.8962 10.4878 38.6314 19.7532C35.0119 23.3721 31.8569 27.3752 29.1826 31.6956L20.758 29.1029C24.1633 25.3904 26.0484 20.6207 26.0484 15.5506V13.7097H24.2075C18.8401 13.7097 13.7934 15.7989 9.99842 19.5952C5.37007 24.2236 2.31016 30.342 1.38436 36.8213L1.12663 38.6314L2.93674 38.3737C6.01003 37.9346 8.99631 37.0007 11.7878 35.6619L22.0325 45.9067L20.2874 49.6454L21.5432 50.9012L17.9705 56.2606C17.6432 56.2331 17.3152 56.2097 16.9825 56.2097C11.9853 56.2097 7.5102 59.3767 5.84603 64.0887L0 80.6528V80.8871C0 83.1544 1.84558 85 4.1129 85H4.3472L20.9113 79.154C25.6233 77.4898 28.7903 73.0147 28.7903 68.0175C28.7903 67.6848 28.7669 67.3568 28.7408 67.0308L34.1001 63.4581L35.356 64.714L38.1608 63.4046L47.9685 73.2122C46.6296 76.0037 45.6958 78.99 45.2573 82.0633L44.9996 83.8734L46.809 83.6156C53.2897 82.6898 59.4068 79.6313 64.0352 75.0016C67.8301 71.2066 69.9194 66.1599 69.9194 60.7925V58.9516H68.0785C63.0083 58.9516 58.2387 60.8367 54.5261 64.242L52.1503 56.5183C56.9159 53.702 61.3066 50.3088 65.2482 46.3686C74.5122 37.1038 80.7666 25.4178 83.3358 12.5717L84.9739 4.38134L85 4.1129C85 1.84558 83.1544 0 80.8871 0V0ZM41.8641 49.4231C40.4255 50.8617 38.7861 52.0185 37.0161 52.9001L32.0999 47.9839C32.9815 46.2153 34.1383 44.5745 35.5769 43.1359C38.5364 40.1765 42.4398 38.5009 46.6075 38.3925C46.4991 42.5602 44.8236 46.4636 41.8641 49.4231ZM30.9934 50.7546L34.2441 54.0053C32.9414 54.4056 31.5965 54.6794 30.2135 54.7838C30.3193 53.4035 30.5931 52.0573 30.9934 50.7546ZM27.6637 53.1431L23.5849 49.0643L27.9502 39.7099C28.1182 39.3497 28.3023 38.9983 28.4777 38.6408L32.3998 42.5629C29.842 45.5967 28.2253 49.2397 27.6637 53.1431ZM11.9371 21.5338C14.9956 18.4753 18.9947 16.7 23.2817 16.4764C23.0581 20.7633 21.2828 24.7624 18.2242 27.821C16.465 29.5802 14.4621 31.0784 12.3059 32.3028L7.45665 27.4535C8.67967 25.296 10.1778 23.2931 11.9371 21.5338ZM4.43757 35.3205C4.82985 33.5037 5.41559 31.7338 6.15998 30.0341L9.72262 33.5967C8.02431 34.3425 6.25437 34.9282 4.43757 35.3205ZM14.3168 34.3137C15.7976 33.4254 17.2 32.4085 18.5121 31.2799L27.7514 34.1222C26.9394 35.5668 26.1702 37.0396 25.466 38.5504L23.267 43.2625L14.3168 34.3137ZM15.0519 63.6268C15.7494 61.6514 17.6264 60.3226 19.7244 60.3226C22.455 60.3226 24.6774 62.545 24.6774 65.2756C24.6774 67.3736 23.3506 69.2506 21.3732 69.9481L11.6037 73.3963L15.0519 63.6268ZM19.9982 76.5687L3.91676 82.2447C3.3163 82.1597 2.84034 81.6824 2.75532 81.0832L8.43132 65.0018C9.48833 62.0075 12.0328 59.8506 15.0492 59.1872C13.8918 60.0742 12.9733 61.2778 12.4659 62.7151L7.11123 77.8888L22.2863 72.5321C23.7235 72.0253 24.9271 71.1069 25.8141 69.9495C25.1507 72.9686 22.9925 75.5117 19.9982 76.5687ZM28.1256 64.1463C26.9407 60.749 24.2523 58.0606 20.855 56.8757L23.52 52.878L32.1234 61.4813L28.1256 64.1463ZM31.8556 57.3363C35.759 56.7747 39.4019 55.158 42.4357 52.6015L46.3579 56.5236C46.0017 56.699 45.6489 56.8831 45.2888 57.0511L35.9343 61.4164L31.8556 57.3363ZM50.031 75.276L53.5936 78.8387C51.8939 79.5831 50.124 80.1702 48.3072 80.5611C48.7008 78.7456 49.2866 76.9757 50.031 75.276ZM67.1526 61.7183C66.9291 66.0053 65.1538 70.0044 62.0952 73.0629C60.336 74.8222 58.3331 76.3203 56.1769 77.5447L51.3276 72.6954C52.5506 70.5392 54.0488 68.5363 55.8094 66.7771C58.8666 63.7172 62.8657 61.9419 67.1526 61.7183ZM52.3491 66.4879C51.2205 67.7986 50.205 69.2024 49.3153 70.6832L40.803 62.1708L46.4482 59.5353C47.5534 59.0199 48.6339 58.4663 49.7043 57.8933L52.3491 66.4879ZM63.3089 44.4306C59.0299 48.7089 54.1954 52.3123 48.9137 55.2009L44.4085 50.6957C47.5916 47.198 49.3548 42.7182 49.3548 37.958V35.6452H47.042C42.2804 35.6452 37.8 37.4084 34.3043 40.5928L29.7991 36.0883C32.6877 30.8059 36.2911 25.9701 40.5694 21.6932C47.212 15.0505 55.1553 10.0232 63.8912 6.87961L78.1217 21.1101C74.9781 29.8447 69.9508 37.7866 63.3089 44.4306ZM80.6474 12.0328C80.2291 14.1207 79.7029 16.1745 79.0844 18.1928L66.8072 5.91565C68.8255 5.2971 70.8793 4.77094 72.9672 4.35255L81.0009 2.74595C81.667 2.80084 82.2005 3.33303 82.2541 3.9991L80.6474 12.0328Z" fill="black"/>
<path d="M60.3227 13.7097C54.2752 13.7097 49.355 18.6299 49.355 24.6775C49.355 30.725 54.2752 35.6452 60.3227 35.6452C66.3702 35.6452 71.2905 30.725 71.2905 24.6775C71.2905 18.6299 66.3702 13.7097 60.3227 13.7097ZM60.3227 32.9033C55.7861 32.9033 52.0969 29.2141 52.0969 24.6775C52.0969 20.1408 55.7861 16.4517 60.3227 16.4517C64.8594 16.4517 68.5485 20.1408 68.5485 24.6775C68.5485 29.2141 64.8594 32.9033 60.3227 32.9033Z" fill="black"/>
<path d="M60.3227 19.1935C57.2983 19.1935 54.8389 21.6529 54.8389 24.6774C54.8389 27.7018 57.2983 30.1612 60.3227 30.1612C63.3472 30.1612 65.8066 27.7018 65.8066 24.6774C65.8066 21.6529 63.3472 19.1935 60.3227 19.1935ZM60.3227 27.4193C58.8105 27.4193 57.5808 26.1896 57.5808 24.6774C57.5808 23.1651 58.8105 21.9354 60.3227 21.9354C61.8349 21.9354 63.0647 23.1651 63.0647 24.6774C63.0647 26.1896 61.8349 27.4193 60.3227 27.4193Z" fill="black"/>
</svg>
