<svg width="81" height="81" viewBox="0 0 81 81" fill="none" xmlns="http://www.w3.org/2000/svg">
<g clip-path="url(#clip0)">
<path d="M79.6875 17.1723C79.6875 21.5172 77.9281 25.4552 75.0798 28.317L69.1863 22.4229L58.6851 11.9217L52.791 6.02826C55.6528 3.17992 59.5908 1.42053 63.9357 1.42053C72.6384 1.42053 79.6875 8.4696 79.6875 17.1723Z" fill="#69D6F4"/>
<path d="M77.0623 30.2988L69.7376 42.5068C68.3326 39.2906 66.4822 36.2717 64.2505 33.5279L69.1864 22.4229L75.0798 28.317L77.0623 30.2988Z" fill="#CCD1D9"/>
<path d="M73.098 58.3111L73.1243 65.7403C73.1243 66.4626 72.8352 67.1189 72.3494 67.5913L53.4346 48.6758L61.3105 30.2988L61.5726 30.5616C62.518 31.5063 63.4102 32.5042 64.2505 33.5278C66.4822 36.2717 68.3326 39.2905 69.7375 42.5068C71.9161 47.442 73.0845 52.8112 73.098 58.3111Z" fill="#AAB2BD"/>
<path d="M53.4348 48.6759L72.3496 67.5913C71.8772 68.0772 71.2209 68.3656 70.4992 68.3656H63.1873C57.74 68.3656 52.3977 67.2369 47.5016 65.0974C43.6425 63.4303 40.059 61.146 36.8953 58.2977C36.3569 57.8253 35.8448 57.3395 35.3333 56.8274L34.6244 56.1185L24.9891 46.4839L24.2809 45.775C23.7688 45.2635 23.283 44.7514 22.8106 44.213C19.9622 41.0493 17.6779 37.4658 16.0108 33.6067C13.8714 28.7106 12.7427 23.3683 12.7427 17.921V10.6091C12.7427 9.87394 13.0311 9.21761 13.5035 8.74524L32.4324 27.6735L53.4348 48.6759Z" fill="#E6E9ED"/>
<path d="M69.1862 22.4229L64.2503 33.5278C63.41 32.5042 62.5179 31.5063 61.5725 30.5615L61.3103 30.2988L50.5335 19.522C49.5881 18.5772 48.6037 17.6844 47.5801 16.8576L58.685 11.9217L69.1862 22.4229Z" fill="#E6E9ED"/>
<path d="M65.2486 47.3632C65.2486 48.813 64.0731 49.9885 62.6233 49.9885C61.1729 49.9885 59.998 48.813 59.998 47.3632C59.998 45.9134 61.1729 44.7379 62.6233 44.7379C64.0731 44.7379 65.2486 45.9134 65.2486 47.3632Z" fill="#FCD770"/>
<path d="M61.3104 30.2988L53.4345 48.6758L32.4321 27.6735L50.8092 19.7976L61.3104 30.2988Z" fill="#E6E9ED"/>
<path d="M58.6852 11.9217L47.5802 16.8576C44.8364 14.6259 41.8175 12.7755 38.6147 11.3577L50.8093 4.04584L52.7911 6.02827L58.6852 11.9217Z" fill="#CCD1D9"/>
<path d="M52.1222 31.6114C52.1222 33.0612 50.9467 34.2367 49.4969 34.2367C48.0464 34.2367 46.8716 33.0612 46.8716 31.6114C46.8716 30.1616 48.0464 28.9861 49.4969 28.9861C50.9467 28.9861 52.1222 30.1616 52.1222 31.6114Z" fill="#FCD770"/>
<path d="M50.8094 19.7976L32.4323 27.6735L13.5034 8.7452C13.9764 8.27283 14.6328 7.98376 15.3679 7.98376H22.6791C28.2316 7.98376 33.6527 9.1522 38.6149 11.3577C41.8176 12.7754 44.8365 14.6258 47.5803 16.8576C48.6039 17.6844 49.5884 18.5772 50.5338 19.522L50.8094 19.7976Z" fill="#AAB2BD"/>
<path d="M47.5013 65.0974L37.6827 70.9908L32.4321 65.7402L36.895 58.2976C40.0587 61.146 43.6422 63.4303 47.5013 65.0974Z" fill="#FCD770"/>
<path d="M36.3702 18.4849C36.3702 19.9347 35.1947 21.1102 33.7449 21.1102C32.2945 21.1102 31.1196 19.9347 31.1196 18.4849C31.1196 17.0351 32.2945 15.8596 33.7449 15.8596C35.1947 15.8596 36.3702 17.0351 36.3702 18.4849Z" fill="#FCD770"/>
<path d="M34.624 56.1185L25.8688 60.4897L20.6182 55.2391L24.9887 46.4838L34.624 56.1185Z" fill="#FCD770"/>
<path d="M22.8104 44.2129L15.3678 48.6758L10.1172 43.4252L16.0106 33.6066C17.6777 37.4657 19.962 41.0492 22.8104 44.2129Z" fill="#FCD770"/>
<path d="M34.9897 50.9172L36.8466 49.061L39.4712 51.6857L37.615 53.5419L34.9897 50.9172Z" fill="black"/>
<path d="M38.9873 54.8846C45.0519 60.5582 52.9541 63.9302 61.2395 64.375L61.3799 61.7523C53.5988 61.335 46.4761 58.2963 40.7807 52.9669L38.9873 54.8846Z" fill="black"/>
<path d="M76.8847 28.2657C79.5401 25.1744 81.0002 21.289 81.0002 17.1723C81.0002 7.76325 73.3447 0.107849 63.9357 0.107849C59.819 0.107849 55.9336 1.56791 52.8423 4.22333L51.0124 2.39345L38.5461 9.87387C33.5936 7.77671 28.2238 6.67109 22.6841 6.67109H15.362C13.1937 6.67109 11.4298 8.4356 11.4298 10.609V17.926C11.4298 23.3721 12.4931 28.6541 14.5198 33.5361L8.46289 43.629L15.1627 50.3288L22.57 45.8839C22.8283 46.1556 23.0808 46.4325 23.3456 46.6992L23.3943 46.7479L19.0192 55.498L25.6087 62.0875L34.3601 57.7125L34.4076 57.7592C34.6742 58.0259 34.9498 58.2778 35.2228 58.5354L30.7779 65.9441L37.4777 72.6438L47.5706 66.5882C52.4552 68.6149 57.7372 69.6782 63.182 69.6782H70.499C71.5501 69.6782 72.5397 69.2686 73.2826 68.5232C74.0261 67.7778 74.4343 66.7895 74.4311 65.7377L74.4145 58.3085C74.401 52.815 73.3025 47.4907 71.2284 42.5747L78.7158 30.0956L76.8847 28.2657ZM63.9357 2.73314C71.8969 2.73314 78.3749 9.21114 78.3749 17.1723C78.3749 20.5878 77.1917 23.8195 75.0285 26.4095L54.6985 6.0795C57.2885 3.91632 60.5202 2.73314 63.9357 2.73314ZM62.4955 29.6283L51.4572 18.59C50.9849 18.1177 50.5029 17.6594 50.0119 17.2133L58.3948 13.4881L67.6211 22.7145L63.8947 31.0986C63.4422 30.5981 62.9743 30.1071 62.4955 29.6283ZM34.7306 28.1157L50.5086 21.3531L59.7536 30.5981L52.9917 46.3761L34.7306 28.1157ZM50.6054 5.69878L56.4047 11.498L47.7744 15.3347C45.7682 13.7567 43.6378 12.3812 41.4041 11.2211L50.6054 5.69878ZM48.4724 19.3713L32.7315 26.1166L15.9113 9.29638H22.6841C32.3309 9.29638 41.4246 12.8658 48.4724 19.3713ZM15.5709 47.0235L11.7695 43.222L15.8587 36.4082C17.2117 39.0572 18.8577 41.5665 20.7914 43.8912L15.5709 47.0235ZM26.1272 58.8924L22.2156 54.9808L25.3543 48.7047L32.4059 55.755L26.1272 58.8924ZM37.8859 69.3385L34.0845 65.5371L37.2181 60.3153C39.5428 62.249 42.0521 63.895 44.7011 65.248L37.8859 69.3385ZM36.265 55.9037L25.203 44.843C18.0148 37.6523 14.0551 28.0939 14.0551 17.926V11.1525L69.9555 67.0529H63.182C53.0154 67.0529 43.4557 63.0932 36.265 55.9037ZM71.8046 65.1903L54.9914 48.3752L61.7367 32.6356C68.2057 39.6552 71.7668 48.7104 71.7892 58.3124L71.8046 65.1903ZM69.8805 39.7174C68.7216 37.4792 67.3468 35.3462 65.7707 33.3387L69.6087 24.7033L75.4079 30.5026L69.8805 39.7174Z" fill="black"/>
<path d="M0 79.2506L2.62465 76.626L4.48146 78.4821L1.85617 81.1068L0 79.2506Z" fill="black"/>
<path d="M3.93799 75.3127L19.6904 59.561L21.5466 61.4171L5.79415 77.1689L3.93799 75.3127Z" fill="black"/>
<path d="M10.501 75.3127L13.1256 72.688L14.9818 74.5442L12.3571 77.1695L10.501 75.3127Z" fill="black"/>
<path d="M14.4385 71.3754L21.0017 64.8122L22.8579 66.669L16.2946 73.2316L14.4385 71.3754Z" fill="black"/>
<path d="M3.93799 68.7495L6.56264 66.1248L8.41945 67.981L5.79415 70.6063L3.93799 68.7495Z" fill="black"/>
<path d="M7.87549 64.8122L14.4387 58.249L16.2949 60.1058L9.73165 66.6684L7.87549 64.8122Z" fill="black"/>
<path d="M0 56.9357L2.6253 54.311L4.48146 56.1672L1.85617 58.7925L0 56.9357Z" fill="black"/>
<path d="M3.93848 52.9977L9.18907 47.7471L11.0452 49.6033L5.79464 54.8539L3.93848 52.9977Z" fill="black"/>
<path d="M6.56299 56.9356L11.8136 51.6851L13.6704 53.5412L8.4198 58.7918L6.56299 56.9356Z" fill="black"/>
<path d="M0.000488281 50.3724L5.25108 45.1218L7.10724 46.978L1.85665 52.2286L0.000488281 50.3724Z" fill="black"/>
<path d="M22.3149 79.2506L24.9396 76.626L26.7958 78.4821L24.1711 81.1074L22.3149 79.2506Z" fill="black"/>
<path d="M26.2529 75.3127L31.5035 70.0621L33.3597 71.9183L28.1091 77.1689L26.2529 75.3127Z" fill="black"/>
<path d="M28.8784 79.2507L34.129 74.0001L35.9852 75.8562L30.7346 81.1068L28.8784 79.2507Z" fill="black"/>
<path d="M22.3149 72.6874L27.5655 67.4368L29.4223 69.293L24.1711 74.5436L22.3149 72.6874Z" fill="black"/>
<path d="M33.7451 22.4229C35.9159 22.4229 37.683 20.6564 37.683 18.4849C37.683 16.3141 35.9159 14.547 33.7451 14.547C31.5736 14.547 29.8071 16.3141 29.8071 18.4849C29.8071 20.6564 31.5736 22.4229 33.7451 22.4229ZM33.7451 17.1723C34.4681 17.1723 35.0577 17.762 35.0577 18.4849C35.0577 19.2086 34.4681 19.7976 33.7451 19.7976C33.0214 19.7976 32.4324 19.2086 32.4324 18.4849C32.4324 17.762 33.0214 17.1723 33.7451 17.1723Z" fill="black"/>
<path d="M58.6851 47.3632C58.6851 49.5347 60.4515 51.3011 62.623 51.3011C64.7939 51.3011 66.561 49.5347 66.561 47.3632C66.561 45.1923 64.7939 43.4252 62.623 43.4252C60.4515 43.4252 58.6851 45.1923 58.6851 47.3632ZM63.9357 47.3632C63.9357 48.0881 63.346 48.6758 62.623 48.6758C61.8994 48.6758 61.3104 48.0881 61.3104 47.3632C61.3104 46.6389 61.8994 46.0505 62.623 46.0505C63.346 46.0505 63.9357 46.6389 63.9357 47.3632Z" fill="black"/>
<path d="M49.4965 27.6735C47.325 27.6735 45.5586 29.4405 45.5586 31.6114C45.5586 33.7829 47.325 35.5494 49.4965 35.5494C51.6674 35.5494 53.4345 33.7829 53.4345 31.6114C53.4345 29.4405 51.6674 27.6735 49.4965 27.6735ZM49.4965 32.9241C48.7729 32.9241 48.1839 32.335 48.1839 31.6114C48.1839 30.8884 48.7729 30.2988 49.4965 30.2988C50.2195 30.2988 50.8092 30.8884 50.8092 31.6114C50.8092 32.335 50.2195 32.9241 49.4965 32.9241Z" fill="black"/>
<path d="M59.5054 6.21865L60.4911 8.65231C61.225 8.35427 61.9967 8.15494 62.7857 8.05623L62.4601 5.45081C61.4455 5.57643 60.4501 5.83537 59.5054 6.21865Z" fill="black"/>
<path d="M63.936 5.35846V7.98375C66.7382 7.98375 69.3533 9.24 71.1094 11.4295L73.1585 9.78736C70.9005 6.97299 67.5388 5.35846 63.936 5.35846Z" fill="black"/>
</g>
<defs>
<clipPath id="clip0">
<rect width="81" height="81" fill="white"/>
</clipPath>
</defs>
</svg>
