<svg width="65" height="65" viewBox="0 0 65 65" fill="none" xmlns="http://www.w3.org/2000/svg">
<g opacity="0.75" clip-path="url(#clip0)">
<path d="M64.048 38.8096C64.048 41.1327 62.1648 43.0159 59.8417 43.0159H28.2938C25.9707 43.0159 24.0875 41.1327 24.0875 38.8096V7.2617C24.0875 4.93858 25.9707 3.05536 28.2938 3.05536H59.8417C62.1648 3.05536 64.048 4.93858 64.048 7.2617V38.8096Z" fill="#5C545F"/>
<path d="M64.048 7.2617C64.048 4.93858 62.1647 3.05536 59.8417 3.05536H56.9218C59.2449 3.05536 61.1281 4.93858 61.1281 7.2617V38.8096C61.1281 41.1327 59.2449 43.0159 56.9218 43.0159H59.8417C62.1648 43.0159 64.048 41.1327 64.048 38.8096V7.2617Z" fill="#4B3F4E"/>
<path d="M59.8415 36.7063C59.8415 37.8678 58.8999 38.8095 57.7383 38.8095H30.3969C29.2354 38.8095 28.2936 37.8679 28.2936 36.7063V9.36478C28.2936 8.20329 29.2353 7.26155 30.3969 7.26155H57.7384C58.9 7.26155 59.8416 8.20316 59.8416 9.36478L59.8415 36.7063Z" fill="#9DC6FB"/>
<path d="M59.8415 9.36494C59.8415 8.20344 58.8999 7.2617 57.7383 7.2617H54.8184C55.9799 7.2617 56.9216 8.20332 56.9216 9.36494V36.7065C56.9216 37.868 55.98 38.8097 54.8184 38.8097H57.7383C58.8999 38.8097 59.8415 37.8681 59.8415 36.7065V9.36494Z" fill="#80B4FB"/>
<path d="M34.6032 15.6745C35.7648 15.6745 36.7065 14.7329 36.7065 13.5713C36.7065 12.4097 35.7648 11.468 34.6032 11.468C33.4416 11.468 32.5 12.4097 32.5 13.5713C32.5 14.7329 33.4416 15.6745 34.6032 15.6745Z" fill="#ECF4FF"/>
<path d="M17.7778 44.6104V7.36555C17.7778 3.90557 15.0356 1.01078 11.5761 0.95302C8.042 0.893986 5.15864 3.74116 5.15864 7.2617V44.6103C5.15864 44.9257 5.01556 45.2225 4.77257 45.4234C2.41086 47.3757 0.916119 50.3394 0.952935 53.6515C1.01552 59.2825 5.58495 63.9124 11.2147 64.0449C17.1384 64.1843 21.9841 59.424 21.9841 53.5319C21.9841 50.268 20.4969 47.3516 18.1632 45.4228C17.9205 45.2221 17.7778 44.9254 17.7778 44.6104Z" fill="#ECF4FF"/>
<path d="M13.5714 46.8819V20.9324C13.5714 20.3516 13.1005 19.8808 12.5199 19.8808H10.4166C9.83582 19.8808 9.36507 20.3517 9.36507 20.9324V46.8758C9.36507 47.2792 9.13897 47.6537 8.77436 47.8261C6.53668 48.8843 5.02074 51.2187 5.16864 53.8906C5.34701 57.1138 7.98903 59.7101 11.2147 59.8364C14.8148 59.9775 17.7779 57.1007 17.7779 53.5318C17.7779 51.0176 16.3069 48.848 14.179 47.834C13.81 47.6583 13.5714 47.2905 13.5714 46.8819Z" fill="#FF8086"/>
<path d="M18.1634 45.4228C17.9205 45.2221 17.7779 44.9254 17.7779 44.6103V7.36556C17.7779 3.90558 15.0357 1.01079 11.5763 0.95303C11.0319 0.944016 10.5033 1.00432 9.99799 1.12492C12.7964 1.79778 14.8538 4.36883 14.8538 7.36556V44.6103C14.8538 44.9253 14.9965 45.2221 15.2392 45.4228C17.5728 47.3516 19.0601 50.2678 19.0601 53.5318C19.0601 58.8411 15.125 63.2296 10.0126 63.9442C10.4072 63.9995 10.8078 64.0353 11.2148 64.0449C17.1386 64.1843 21.9844 59.424 21.9844 53.5319C21.9843 50.268 20.4969 47.3516 18.1634 45.4228Z" fill="#DDEAFB"/>
<path d="M14.1789 47.8341C13.81 47.6583 13.5714 47.2907 13.5714 46.882V20.9324C13.5714 20.3516 13.1006 19.8808 12.5199 19.8808H10.4166C10.2718 19.8808 10.1338 19.9102 10.0082 19.9631C10.3862 20.1226 10.6515 20.4964 10.6515 20.9324V46.8819C10.6515 47.2905 10.8901 47.6583 11.259 47.834C13.387 48.848 14.8578 51.0176 14.8578 53.5318C14.8578 56.5135 12.789 59.0106 10.0089 59.6698C10.3986 59.763 10.8017 59.8203 11.2145 59.8364C14.8147 59.9775 17.7778 57.1007 17.7778 53.5318C17.7778 51.0177 16.3068 48.848 14.1789 47.8341Z" fill="#E5646E"/>
<path d="M18.7701 44.689C18.7447 44.6679 18.7301 44.6393 18.7301 44.6103V7.36551C18.7301 3.37043 15.5279 0.0667361 11.592 0.000974496C9.63414 -0.0319063 7.77606 0.707848 6.37691 2.08389C4.97751 3.46019 4.20678 5.29897 4.20678 7.26166V17.9765C4.20678 18.5023 4.63296 18.9286 5.15893 18.9286C5.68489 18.9286 6.11107 18.5023 6.11107 17.9765V7.26166C6.11107 5.81364 6.67969 4.45702 7.7122 3.44152C8.74446 2.42641 10.1072 1.88204 11.5604 1.90501C14.4637 1.95351 16.8259 4.40307 16.8259 7.36551V44.6102C16.8259 45.2088 17.0924 45.7724 17.5569 46.1566C19.7656 47.9821 21.0324 50.6702 21.0324 53.5317C21.0324 56.1289 20.0089 58.5589 18.1506 60.3739C16.2931 62.1883 13.8406 63.155 11.2374 63.0928C6.14827 62.973 1.962 58.7328 1.90538 53.6406C1.873 50.7365 3.13936 48.009 5.37932 46.1571C5.84447 45.7728 6.1112 45.2089 6.1112 44.6101V21.7851C6.1112 21.2592 5.68502 20.8329 5.15905 20.8329C4.63309 20.8329 4.20691 21.2592 4.20691 21.7851V44.6102C4.20691 44.6391 4.19218 44.6681 4.16628 44.6894C1.48059 46.9097 -0.0375091 50.18 0.00108457 53.6619C0.0342193 56.6335 1.21247 59.4451 3.31887 61.5788C5.42565 63.7129 8.22192 64.9267 11.1925 64.9965C11.2857 64.9987 11.3785 64.9998 11.4714 64.9998C14.485 64.9997 17.3201 63.847 19.4812 61.7363C21.7095 59.5598 22.9366 56.6461 22.9366 53.5317C22.9365 50.1005 21.4179 46.8774 18.7701 44.689Z" fill="black"/>
<path d="M12.5198 18.9287H10.4167C9.31178 18.9287 8.41295 19.8275 8.41295 20.9324V46.8758C8.41295 46.9153 8.39391 46.9529 8.36738 46.9654C5.68244 48.2352 4.05364 50.9742 4.21804 53.9433C4.42244 57.6365 7.47934 60.6431 11.1774 60.7879C11.2759 60.7919 11.374 60.7937 11.4719 60.7937C13.3589 60.7937 15.1351 60.0801 16.5009 58.7669C17.9382 57.3847 18.7299 55.5255 18.7299 53.5319C18.7299 50.7474 17.1043 48.1735 14.5886 46.9747C14.5486 46.9556 14.5236 46.9201 14.5236 46.8821V20.9324C14.5236 19.8275 13.6246 18.9287 12.5198 18.9287ZM16.8256 53.5319C16.8256 55.0028 16.2415 56.3744 15.1811 57.3942C14.1211 58.4134 12.7263 58.9431 11.252 58.8852C8.52467 58.7783 6.27011 56.5613 6.11929 53.838C5.99792 51.6459 7.19992 49.6239 9.18114 48.687C9.87126 48.3609 10.3171 47.65 10.3171 46.8758V20.9324C10.3171 20.8776 10.3618 20.833 10.4165 20.833H12.5196C12.5746 20.833 12.6192 20.8776 12.6192 20.9324V46.8819C12.6192 47.6496 13.0706 48.3606 13.7692 48.6936C15.626 49.5784 16.8256 51.4776 16.8256 53.5319Z" fill="black"/>
<path d="M34.6033 16.6267C36.2881 16.6267 37.6587 15.2561 37.6587 13.5713C37.6587 11.8866 36.288 10.516 34.6033 10.516C32.9186 10.516 31.548 11.8866 31.548 13.5713C31.548 15.2561 32.9186 16.6267 34.6033 16.6267ZM34.6033 12.4203C35.2381 12.4203 35.7544 12.9367 35.7544 13.5713C35.7544 14.2061 35.2381 14.7224 34.6033 14.7224C33.9686 14.7224 33.4523 14.2061 33.4523 13.5713C33.4523 12.9367 33.9686 12.4203 34.6033 12.4203Z" fill="black"/>
<path d="M48.3479 35.5554C51.0511 35.5554 53.4655 34.6777 55.3297 33.0173C55.6957 32.6914 56.0439 32.3322 56.3647 31.9495C56.7027 31.5467 56.65 30.9461 56.2472 30.6081C55.8442 30.2702 55.2437 30.3229 54.9058 30.7257C54.644 31.0379 54.3604 31.3304 54.0631 31.5952C52.5315 32.9593 50.6085 33.651 48.3479 33.651C42.4944 33.651 37.7324 28.8889 37.7324 23.0355C37.7324 17.1822 42.4946 12.4201 48.3479 12.4201C50.4752 12.4201 52.5273 13.0468 54.2823 14.2325C54.718 14.5269 55.3099 14.4122 55.6043 13.9765C55.8985 13.5407 55.784 12.9488 55.3482 12.6544C53.2771 11.2553 50.8565 10.5158 48.3477 10.5158C41.4443 10.5158 35.828 16.1321 35.828 23.0355C35.828 29.939 41.4444 35.5554 48.3479 35.5554Z" fill="black"/>
<path d="M27.3416 9.36496L27.3417 36.7065C27.3417 38.3911 28.7123 39.7619 30.3969 39.7619H57.7383C59.423 39.7619 60.7937 38.3913 60.7937 36.7065L60.7936 9.36496C60.7936 7.68029 59.423 6.30971 57.7383 6.30971H30.3969C28.7123 6.30958 27.3416 7.68029 27.3416 9.36496ZM58.8894 9.36496L58.8895 36.7065C58.8895 37.3411 58.3732 37.8576 57.7384 37.8576H30.3969C29.7623 37.8576 29.246 37.3412 29.246 36.7065L29.2458 9.36496C29.2458 8.73032 29.7622 8.214 30.3969 8.214H57.7383C58.3731 8.21388 58.8894 8.73032 58.8894 9.36496Z" fill="black"/>
<path d="M59.8415 2.10321H36.5077C35.9817 2.10321 35.5555 2.52952 35.5555 3.05536C35.5555 3.5812 35.9817 4.00751 36.5077 4.00751H59.8415C61.636 4.00751 63.0958 5.46734 63.0958 7.2617V38.8096C63.0958 40.6039 61.636 42.0637 59.8417 42.0637H28.2938C26.4993 42.0637 25.0395 40.6039 25.0395 38.8096V7.2617C25.0395 5.46734 26.4993 4.00751 28.2937 4.00751H32.699C33.2249 4.00751 33.6511 3.5812 33.6511 3.05536C33.6511 2.52952 33.2249 2.10321 32.699 2.10321H28.2937C25.4493 2.10321 23.1352 4.41731 23.1352 7.2617V38.8096C23.1352 41.6539 25.4494 43.968 28.2938 43.968H59.8417C62.686 43.968 65.0001 41.6539 65.0001 38.8096V7.2617C65.0001 4.41731 62.6859 2.10321 59.8415 2.10321Z" fill="black"/>
</g>
<defs>
<clipPath id="clip0">
<rect width="65" height="65" fill="white"/>
</clipPath>
</defs>
</svg>
